<?xml version="1.0" encoding="UTF-8" standalone="no"?>
<!-- Created with Inkscape (http://www.inkscape.org/) -->

<svg
   xmlns:dc="http://purl.org/dc/elements/1.1/"
   xmlns:cc="http://creativecommons.org/ns#"
   xmlns:rdf="http://www.w3.org/1999/02/22-rdf-syntax-ns#"
   xmlns:svg="http://www.w3.org/2000/svg"
   xmlns="http://www.w3.org/2000/svg"
   xmlns:sodipodi="http://sodipodi.sourceforge.net/DTD/sodipodi-0.dtd"
   xmlns:inkscape="http://www.inkscape.org/namespaces/inkscape"
   width="1028"
   height="198.10175"
   id="svg2"
   version="1.1"
   inkscape:version="0.48.3.1 r9886"
   inkscape:export-filename="/home/ivajo/DevHunter/landing/images/DevHunter-Logo-300.png"
   inkscape:export-xdpi="26.264591"
   inkscape:export-ydpi="26.264591"
   sodipodi:docname="DevHunter-Logo-300.svg">
  <defs
     id="defs4" />
  <sodipodi:namedview
     id="base"
     pagecolor="#ffffff"
     bordercolor="#666666"
     borderopacity="1.0"
     inkscape:pageopacity="0.0"
     inkscape:pageshadow="2"
     inkscape:zoom="0.64000001"
     inkscape:cx="417.11242"
     inkscape:cy="-7.3793649"
     inkscape:document-units="px"
     inkscape:current-layer="layer1"
     showgrid="false"
     fit-margin-top="2"
     fit-margin-left="2"
     fit-margin-right="2"
     fit-margin-bottom="1.5"
     inkscape:window-width="1366"
     inkscape:window-height="746"
     inkscape:window-x="0"
     inkscape:window-y="0"
     inkscape:window-maximized="1" />
  <metadata
     id="metadata7">
    <rdf:RDF>
      <cc:Work
         rdf:about="">
        <dc:format>image/svg+xml</dc:format>
        <dc:type
           rdf:resource="http://purl.org/dc/dcmitype/StillImage" />
        <dc:title></dc:title>
      </cc:Work>
    </rdf:RDF>
  </metadata>
  <g
     inkscape:label="Capa 1"
     inkscape:groupmode="layer"
     id="layer1"
     transform="translate(-199.4286,-365.20843)">
    <g
       id="g3065"
       transform="matrix(3.4133331,0,0,3.4133331,-486.11427,-1355.8351)">
      <rect
         ry="3.3448458"
         rx="3.578191"
         y="504.79794"
         x="201.42859"
         height="55.564163"
         width="112.80363"
         id="rect2993"
         style="fill:#3cadd4;fill-opacity:1;stroke:none" />
      <g
         transform="matrix(1.4993405,0,0,1.6537866,16.868457,-311.44276)"
         style="font-size:40px;font-style:normal;font-weight:normal;line-height:125%;letter-spacing:0px;word-spacing:0px;fill:#ffffff;fill-opacity:1;stroke:none;font-family:Sans"
         id="flowRoot2985">
        <path
           d="m 125.80375,523.81532 0,-28.4 10.32,0 c 2.31998,3e-5 4.34665,0.37336 6.08,1.12 1.75998,0.74669 3.22664,1.76003 4.4,3.04 1.17331,1.28002 2.05331,2.78669 2.64,4.52 0.58664,1.70669 0.87997,3.53335 0.88,5.48 -3e-5,2.16001 -0.33336,4.12001 -1,5.88 -0.64003,1.73334 -1.57336,3.22667 -2.8,4.48 -1.22669,1.22667 -2.70669,2.18667 -4.44,2.88 -1.70668,0.66667 -3.62668,1 -5.76,1 l -10.32,0 m 18.76,-14.24 c -2e-5,-1.35998 -0.18669,-2.61331 -0.56,-3.76 -0.37335,-1.14665 -0.92002,-2.13331 -1.64,-2.96 -0.72002,-0.82664 -1.61335,-1.46664 -2.68,-1.92 -1.04002,-0.45331 -2.22668,-0.67997 -3.56,-0.68 l -4.8,0 0,18.72 4.8,0 c 1.35999,10e-6 2.55998,-0.23999 3.6,-0.72 1.06665,-0.47999 1.94665,-1.13333 2.64,-1.96 0.71998,-0.85332 1.26665,-1.85332 1.64,-3 0.37331,-1.14665 0.55998,-2.38665 0.56,-3.72"
           style="font-variant:normal;font-weight:bold;font-stretch:normal;fill:#ffffff;font-family:Raleway;-inkscape-font-specification:Raleway Bold"
           id="path2993"
           inkscape:connector-curvature="0" />
        <path
           d="m 163.75375,524.21532 c -1.68001,0 -3.20001,-0.28 -4.56,-0.84 -1.36001,-0.58666 -2.52001,-1.37333 -3.48,-2.36 -0.96,-0.98666 -1.70667,-2.13333 -2.24,-3.44 -0.50667,-1.30666 -0.76,-2.67999 -0.76,-4.12 0,-1.49332 0.25333,-2.89332 0.76,-4.2 0.50666,-1.33332 1.24,-2.49331 2.2,-3.48 0.95999,-1.01331 2.11999,-1.81331 3.48,-2.4 1.38666,-0.58664 2.93332,-0.87998 4.64,-0.88 1.70665,2e-5 3.22665,0.29336 4.56,0.88 1.35998,0.58669 2.50665,1.37335 3.44,2.36 0.95998,0.98669 1.67998,2.13335 2.16,3.44 0.50664,1.30668 0.75998,2.66668 0.76,4.08 -2e-5,0.34668 -0.0134,0.68001 -0.04,1 -2e-5,0.32001 -0.0267,0.58668 -0.08,0.8 l -16.2,0 c 0.08,0.82668 0.27999,1.56001 0.6,2.2 0.31999,0.64001 0.73333,1.18667 1.24,1.64 0.50666,0.45334 1.07999,0.80001 1.72,1.04 0.63999,0.24001 1.30665,0.36001 2,0.36 1.06665,1e-5 2.06665,-0.25333 3,-0.76 0.95998,-0.53333 1.61332,-1.22666 1.96,-2.08 l 4.6,1.28 c -0.77335,1.60001 -2.01335,2.92 -3.72,3.96 -1.68002,1.01333 -3.69335,1.52 -6.04,1.52 m 5.44,-12.64 c -0.13335,-1.57332 -0.72002,-2.82665 -1.76,-3.76 -1.01335,-0.95998 -2.25335,-1.43998 -3.72,-1.44 -0.72001,2e-5 -1.40001,0.13335 -2.04,0.4 -0.61334,0.24002 -1.16001,0.58668 -1.64,1.04 -0.48001,0.45335 -0.88001,1.00002 -1.2,1.64 -0.29334,0.64002 -0.46667,1.34668 -0.52,2.12 l 10.88,0"
           style="font-variant:normal;font-weight:bold;font-stretch:normal;fill:#ffffff;font-family:Raleway;-inkscape-font-specification:Raleway Bold"
           id="path2995"
           inkscape:connector-curvature="0" />
        <path
           d="m 182.99125,523.81532 -7.72,-20.96 5.52,0 5.32,16.6 5.36,-16.6 5.04,0 -7.72,20.96 -5.8,0"
           style="font-variant:normal;font-weight:bold;font-stretch:normal;fill:#ffffff;font-family:Raleway;-inkscape-font-specification:Raleway Bold"
           id="path2997"
           inkscape:connector-curvature="0" />
      </g>
      <g
         transform="matrix(1.730574,0,0,2.0933093,-113.52809,-739.50859)"
         style="font-size:6.62524843px;font-style:normal;font-weight:bold;line-height:125%;letter-spacing:0px;word-spacing:0px;fill:#ececec;fill-opacity:1;stroke:none;font-family:Sans;-inkscape-font-specification:Raleway Bold"
         id="text2995">
        <path
           d="m 251.45424,619.71504 c -0.36219,0.37543 -0.77958,0.56314 -1.25218,0.56314 -0.30034,0 -0.58302,-0.0662 -0.84803,-0.19876 -0.26501,-0.1325 -0.49689,-0.30917 -0.69565,-0.53001 -0.19434,-0.22526 -0.34893,-0.48365 -0.46377,-0.77516 -0.11042,-0.29151 -0.16563,-0.59406 -0.16563,-0.90766 0,-0.32242 0.0552,-0.62498 0.16563,-0.90766 0.11484,-0.28709 0.27164,-0.53664 0.4704,-0.74865 0.20317,-0.21642 0.43947,-0.38647 0.7089,-0.51014 0.27384,-0.12809 0.56977,-0.19213 0.88778,-0.19214 0.42843,10e-6 0.79503,0.0928 1.09979,0.27826 0.30476,0.18552 0.53443,0.43507 0.68903,0.74866 l -0.6824,0.50352 c -0.11484,-0.23409 -0.27385,-0.41297 -0.47702,-0.53665 -0.19876,-0.12367 -0.4196,-0.1855 -0.66253,-0.18551 -0.19434,10e-6 -0.37101,0.042 -0.53002,0.12588 -0.15459,0.0839 -0.28709,0.19876 -0.39751,0.34452 -0.11042,0.14576 -0.19655,0.31359 -0.25839,0.50352 -0.0618,0.18992 -0.0927,0.39089 -0.0927,0.60289 0,0.22085 0.0331,0.42844 0.0994,0.62278 0.0662,0.18992 0.159,0.35555 0.27826,0.49689 0.11925,0.14134 0.25838,0.25397 0.41739,0.33789 0.16342,0.0795 0.3423,0.11925 0.53665,0.11925 0.43284,0 0.82373,-0.21421 1.17267,-0.64265 l 0,-0.33126 -0.94742,0 0,-0.66915 1.70269,0 0,2.41822 -0.75527,0 0,-0.53002"
           style="font-variant:normal;font-stretch:normal;font-family:Raleway;-inkscape-font-specification:Raleway Bold"
           id="path2999"
           inkscape:connector-curvature="0" />
        <path
           d="m 254.97214,617.54195 c -0.26943,0.004 -0.51015,0.0574 -0.72215,0.15901 -0.21201,0.0972 -0.36439,0.24514 -0.45715,0.44389 l 0,2.10021 -0.88778,0 0,-3.47163 0.81491,0 0,0.74202 c 0.11925,-0.2385 0.27384,-0.43063 0.46376,-0.57639 0.19434,-0.14575 0.39752,-0.21863 0.60953,-0.21864 0.0486,10e-6 0.0839,0.002 0.106,0.007 0.0265,0 0.0508,0.002 0.0729,0.007 l 0,0.80828"
           style="font-variant:normal;font-stretch:normal;font-family:Raleway;-inkscape-font-specification:Raleway Bold"
           id="path3001"
           inkscape:connector-curvature="0" />
        <path
           d="m 256.52721,620.31131 c -0.35777,0 -0.6294,-0.11484 -0.81491,-0.34451 -0.1855,-0.22968 -0.27826,-0.56977 -0.27826,-1.02029 l 0,-2.17308 0.88779,0 0,1.98095 c -10e-6,0.53443 0.19213,0.80165 0.57639,0.80165 0.17667,0 0.34451,-0.0508 0.50352,-0.15238 0.16342,-0.106 0.29593,-0.26501 0.39752,-0.47702 l 0,-2.1532 0.88778,0 0,2.45134 c 0,0.0927 0.0177,0.159 0.053,0.19876 0.0353,0.0398 0.0972,0.0618 0.18551,0.0662 l 0,0.75528 c -0.0928,0.0177 -0.17447,0.0287 -0.24514,0.0331 -0.0707,0.009 -0.1325,0.0132 -0.1855,0.0132 -0.15901,0 -0.28489,-0.0353 -0.37764,-0.106 -0.0883,-0.0751 -0.14355,-0.17667 -0.16563,-0.30476 l -0.0199,-0.28489 c -0.15901,0.23851 -0.35997,0.41739 -0.6029,0.53665 -0.23851,0.11925 -0.50573,0.17888 -0.80165,0.17888"
           style="font-variant:normal;font-stretch:normal;font-family:Raleway;-inkscape-font-specification:Raleway Bold"
           id="path3003"
           inkscape:connector-curvature="0" />
        <path
           d="m 261.65577,620.31131 c -0.26943,0 -0.50573,-0.0596 -0.7089,-0.17888 -0.20318,-0.12367 -0.36218,-0.28931 -0.47702,-0.4969 l 0,2.0207 -0.88778,0 0,-4.8828 0.77515,0 0,0.59627 c 0.12809,-0.20317 0.29372,-0.36218 0.4969,-0.47702 0.20317,-0.11925 0.43726,-0.17888 0.70227,-0.17888 0.23409,0 0.45052,0.0486 0.64928,0.14575 0.19875,0.0928 0.3688,0.22085 0.51014,0.38427 0.14575,0.15901 0.25838,0.34893 0.33789,0.56977 0.0839,0.21643 0.12587,0.4461 0.12588,0.68903 -10e-6,0.25176 -0.0376,0.48806 -0.11263,0.7089 -0.0751,0.22084 -0.18109,0.41297 -0.31801,0.57639 -0.13251,0.16343 -0.29372,0.29152 -0.48365,0.38427 -0.18551,0.0928 -0.38868,0.13913 -0.60952,0.13913 m -0.29151,-0.75528 c 0.1325,0 0.25397,-0.0287 0.36439,-0.0861 0.11483,-0.0574 0.212,-0.13471 0.29151,-0.23188 0.0795,-0.0972 0.14134,-0.2098 0.18551,-0.33789 0.0442,-0.12809 0.0663,-0.26059 0.0663,-0.39751 0,-0.14576 -0.0243,-0.28047 -0.0729,-0.40414 -0.0486,-0.12809 -0.11705,-0.23851 -0.20538,-0.33127 -0.0839,-0.0928 -0.18551,-0.16563 -0.30476,-0.21863 -0.11484,-0.053 -0.24072,-0.0795 -0.37764,-0.0795 -0.0839,0 -0.17005,0.0155 -0.25839,0.0464 -0.0883,0.0265 -0.17005,0.0663 -0.24513,0.11926 -0.0751,0.053 -0.14355,0.11484 -0.20538,0.18551 -0.0574,0.0707 -0.10159,0.14796 -0.13251,0.23188 l 0,0.8149 c 0.0795,0.19876 0.20097,0.36439 0.36439,0.4969 0.16342,0.12809 0.3401,0.19213 0.53002,0.19213"
           style="font-variant:normal;font-stretch:normal;font-family:Raleway;-inkscape-font-specification:Raleway Bold"
           id="path3005"
           inkscape:connector-curvature="0" />
        <path
           d="m 265.38454,620.31131 c -0.28267,0 -0.53664,-0.0486 -0.7619,-0.14576 -0.22526,-0.0972 -0.41739,-0.22746 -0.5764,-0.39089 -0.15459,-0.16784 -0.27384,-0.35997 -0.35776,-0.57639 -0.0839,-0.21643 -0.12588,-0.44389 -0.12588,-0.6824 0,-0.24293 0.042,-0.4726 0.12588,-0.68903 0.0839,-0.21642 0.20317,-0.40635 0.35776,-0.56977 0.15901,-0.16784 0.35114,-0.30034 0.5764,-0.39752 0.22526,-0.0972 0.47923,-0.14575 0.7619,-0.14575 0.28268,0 0.53444,0.0486 0.75528,0.14575 0.22526,0.0972 0.41518,0.22968 0.56977,0.39752 0.15901,0.16342 0.28047,0.35335 0.36439,0.56977 0.0839,0.21643 0.12588,0.4461 0.12588,0.68903 0,0.23851 -0.042,0.46597 -0.12588,0.6824 -0.0839,0.21642 -0.20317,0.40855 -0.35776,0.57639 -0.15459,0.16343 -0.34452,0.29372 -0.56977,0.39089 -0.22526,0.0972 -0.47923,0.14576 -0.76191,0.14576 m -0.90765,-1.79544 c -1e-5,0.15459 0.0221,0.29593 0.0662,0.42401 0.0486,0.12367 0.11263,0.23189 0.19213,0.32464 0.0839,0.0928 0.18109,0.16563 0.29151,0.21863 0.11042,0.0486 0.22967,0.0729 0.35776,0.0729 0.12809,0 0.24734,-0.0243 0.35777,-0.0729 0.11042,-0.053 0.20538,-0.12588 0.28488,-0.21863 0.0839,-0.0927 0.14796,-0.20317 0.19214,-0.33126 0.0486,-0.12809 0.0729,-0.26943 0.0729,-0.42402 0,-0.15017 -0.0243,-0.2893 -0.0729,-0.41739 -0.0442,-0.12809 -0.10822,-0.23851 -0.19214,-0.33126 -0.0795,-0.0928 -0.17446,-0.16342 -0.28488,-0.21201 -0.11043,-0.053 -0.22968,-0.0795 -0.35777,-0.0795 -0.12809,0 -0.24734,0.0265 -0.35776,0.0795 -0.11042,0.053 -0.20759,0.12588 -0.29151,0.21863 -0.0795,0.0928 -0.14355,0.20318 -0.19213,0.33127 -0.0442,0.12809 -0.0663,0.26722 -0.0662,0.41739"
           style="font-variant:normal;font-stretch:normal;font-family:Raleway;-inkscape-font-specification:Raleway Bold"
           id="path3007"
           inkscape:connector-curvature="0" />
        <path
           d="m 270.80234,620.31131 c -0.23851,0 -0.45935,-0.0464 -0.66252,-0.13913 -0.19876,-0.0928 -0.37102,-0.22084 -0.51677,-0.38427 -0.14576,-0.16342 -0.2606,-0.35334 -0.34452,-0.56977 -0.0795,-0.22084 -0.11925,-0.45714 -0.11925,-0.7089 0,-0.25176 0.0375,-0.48585 0.11263,-0.70228 0.0795,-0.21642 0.18771,-0.40634 0.32464,-0.56977 0.13692,-0.16342 0.30034,-0.2915 0.49026,-0.38426 0.18993,-0.0928 0.39752,-0.13913 0.62278,-0.13913 0.25176,0 0.47922,0.0618 0.6824,0.18551 0.20759,0.12367 0.3688,0.28488 0.48364,0.48364 l 0,-1.97433 0.88779,0 0,3.81615 c -10e-6,0.0927 0.0177,0.159 0.053,0.19876 0.0353,0.0398 0.0972,0.0618 0.1855,0.0662 l 0,0.75528 c -0.16784,0.0309 -0.30918,0.0464 -0.42401,0.0464 -0.16343,-0.004 -0.29152,-0.042 -0.38427,-0.11263 -0.0883,-0.0707 -0.14355,-0.17004 -0.16563,-0.29813 l -0.0199,-0.23851 c -0.12809,0.22084 -0.30035,0.38868 -0.51677,0.50352 -0.21643,0.11042 -0.4461,0.16563 -0.68903,0.16563 m 0.23189,-0.75528 c 0.0839,0 0.17004,-0.0132 0.25838,-0.0397 0.0883,-0.0309 0.17005,-0.0729 0.24513,-0.12588 0.0751,-0.053 0.14355,-0.11484 0.20539,-0.18551 0.0618,-0.0707 0.10821,-0.14796 0.13913,-0.23188 l 0,-0.82816 c -0.0751,-0.19434 -0.19876,-0.35555 -0.37102,-0.48364 -0.16784,-0.12809 -0.34451,-0.19213 -0.53002,-0.19213 -0.1325,0 -0.25617,0.0287 -0.37101,0.0861 -0.11042,0.0574 -0.20538,0.13692 -0.28489,0.2385 -0.0795,0.0972 -0.14134,0.20981 -0.1855,0.33789 -0.0442,0.12809 -0.0663,0.2606 -0.0663,0.39752 0,0.14575 0.0243,0.28047 0.0729,0.40414 0.0486,0.12367 0.11484,0.23188 0.19876,0.32463 0.0883,0.0928 0.18992,0.16564 0.30476,0.21864 0.11925,0.053 0.24734,0.0795 0.38427,0.0795"
           style="font-variant:normal;font-stretch:normal;font-family:Raleway;-inkscape-font-specification:Raleway Bold"
           id="path3009"
           inkscape:connector-curvature="0" />
        <path
           d="m 275.27728,620.31131 c -0.27826,0 -0.53002,-0.0464 -0.75528,-0.13913 -0.22526,-0.0972 -0.41739,-0.22747 -0.57639,-0.39089 -0.15901,-0.16342 -0.28268,-0.35335 -0.37102,-0.56977 -0.0839,-0.21643 -0.12588,-0.44389 -0.12588,-0.6824 0,-0.24734 0.042,-0.47923 0.12588,-0.69565 0.0839,-0.22084 0.20539,-0.41298 0.36439,-0.5764 0.15901,-0.16784 0.35114,-0.30034 0.5764,-0.39752 0.22967,-0.0972 0.48585,-0.14575 0.76853,-0.14575 0.28267,0 0.53443,0.0486 0.75528,0.14575 0.22525,0.0972 0.41517,0.22747 0.56977,0.39089 0.159,0.16343 0.27825,0.35335 0.35776,0.56978 0.0839,0.21642 0.12588,0.44168 0.12588,0.67577 0,0.0574 -0.002,0.11263 -0.007,0.16563 0,0.053 -0.004,0.0972 -0.0132,0.13251 l -2.68322,0 c 0.0133,0.13692 0.0464,0.25838 0.0994,0.36439 0.053,0.106 0.12146,0.19655 0.20538,0.27163 0.0839,0.0751 0.17888,0.13251 0.28489,0.17226 0.106,0.0398 0.21642,0.0596 0.33126,0.0596 0.17667,0 0.3423,-0.0419 0.49689,-0.12588 0.15901,-0.0883 0.26722,-0.20317 0.32464,-0.34451 l 0.7619,0.21201 c -0.12809,0.26501 -0.33347,0.48364 -0.61615,0.6559 -0.27826,0.16784 -0.61173,0.25176 -1.00041,0.25176 m 0.90104,-2.09358 c -0.0221,-0.26059 -0.11926,-0.46818 -0.29152,-0.62277 -0.16784,-0.15901 -0.37322,-0.23851 -0.61614,-0.23851 -0.11926,0 -0.23189,0.0221 -0.33789,0.0662 -0.10159,0.0398 -0.19213,0.0972 -0.27164,0.17226 -0.0795,0.0751 -0.14575,0.16563 -0.19875,0.27163 -0.0486,0.10601 -0.0773,0.22305 -0.0861,0.35114 l 1.80207,0"
           style="font-variant:normal;font-stretch:normal;font-family:Raleway;-inkscape-font-specification:Raleway Bold"
           id="path3011"
           inkscape:connector-curvature="0" />
        <path
           d="m 282.11382,616.77343 c -0.0309,-0.0309 -0.0883,-0.0729 -0.17226,-0.12588 -0.0795,-0.053 -0.17889,-0.1038 -0.29814,-0.15238 -0.11484,-0.053 -0.24072,-0.0972 -0.37764,-0.13251 -0.13692,-0.0353 -0.27605,-0.053 -0.41739,-0.053 -0.25176,0 -0.43947,0.0464 -0.56314,0.13913 -0.12368,0.0928 -0.18551,0.22305 -0.18551,0.39089 0,0.0972 0.0221,0.17888 0.0663,0.24513 0.0486,0.0618 0.11705,0.11705 0.20539,0.16563 0.0883,0.0486 0.19875,0.0928 0.33126,0.13251 0.13692,0.0397 0.29371,0.0817 0.47039,0.12588 0.22967,0.0618 0.43726,0.12809 0.62277,0.19876 0.18992,0.0707 0.34893,0.159 0.47702,0.26501 0.1325,0.106 0.23409,0.23409 0.30476,0.38426 0.0707,0.14576 0.106,0.32685 0.10601,0.54327 -1e-5,0.25176 -0.0486,0.46819 -0.14576,0.64928 -0.0928,0.17667 -0.21864,0.32022 -0.37764,0.43064 -0.15901,0.11042 -0.34451,0.19213 -0.55652,0.24513 -0.21201,0.0486 -0.43285,0.0729 -0.66252,0.0729 -0.35335,0 -0.70228,-0.053 -1.04679,-0.15901 -0.34452,-0.106 -0.65369,-0.25617 -0.92754,-0.45051 l 0.40414,-0.78841 c 0.0397,0.0398 0.11042,0.0928 0.21201,0.15901 0.106,0.0618 0.22967,0.12588 0.37101,0.19213 0.14134,0.0618 0.29814,0.11484 0.4704,0.159 0.17225,0.0442 0.34892,0.0663 0.53002,0.0663 0.50351,0 0.75527,-0.16122 0.75528,-0.48365 -10e-6,-0.106 -0.0287,-0.19433 -0.0861,-0.26501 -0.0574,-0.0707 -0.13914,-0.1325 -0.24514,-0.1855 -0.106,-0.053 -0.23409,-0.10159 -0.38426,-0.14576 -0.15018,-0.0442 -0.31802,-0.0905 -0.50352,-0.13913 -0.22526,-0.0618 -0.42181,-0.12808 -0.58965,-0.19876 -0.16342,-0.0751 -0.30034,-0.16121 -0.41076,-0.25838 -0.11042,-0.0972 -0.19434,-0.21201 -0.25176,-0.34451 -0.053,-0.13251 -0.0795,-0.2893 -0.0795,-0.4704 0,-0.2385 0.0442,-0.45051 0.13251,-0.63602 0.0883,-0.1855 0.2098,-0.34009 0.36439,-0.46377 0.159,-0.12366 0.3423,-0.21642 0.54989,-0.27826 0.20759,-0.0663 0.43064,-0.0994 0.66915,-0.0994 0.33126,10e-6 0.63603,0.053 0.91429,0.15901 0.27826,0.10159 0.52118,0.22305 0.72878,0.36439 l -0.40414,0.74203"
           style="font-variant:normal;font-stretch:normal;font-family:Raleway;-inkscape-font-specification:Raleway Bold"
           id="path3013"
           inkscape:connector-curvature="0" />
        <path
           d="m 284.89797,620.31131 c -0.28268,0 -0.53664,-0.0486 -0.7619,-0.14576 -0.22526,-0.0972 -0.41739,-0.22746 -0.5764,-0.39089 -0.15459,-0.16784 -0.27384,-0.35997 -0.35776,-0.57639 -0.0839,-0.21643 -0.12588,-0.44389 -0.12588,-0.6824 0,-0.24293 0.042,-0.4726 0.12588,-0.68903 0.0839,-0.21642 0.20317,-0.40635 0.35776,-0.56977 0.15901,-0.16784 0.35114,-0.30034 0.5764,-0.39752 0.22526,-0.0972 0.47922,-0.14575 0.7619,-0.14575 0.28268,0 0.53444,0.0486 0.75528,0.14575 0.22526,0.0972 0.41518,0.22968 0.56977,0.39752 0.159,0.16342 0.28047,0.35335 0.36439,0.56977 0.0839,0.21643 0.12588,0.4461 0.12588,0.68903 0,0.23851 -0.042,0.46597 -0.12588,0.6824 -0.0839,0.21642 -0.20318,0.40855 -0.35776,0.57639 -0.1546,0.16343 -0.34452,0.29372 -0.56977,0.39089 -0.22527,0.0972 -0.47923,0.14576 -0.76191,0.14576 m -0.90766,-1.79544 c 0,0.15459 0.0221,0.29593 0.0663,0.42401 0.0486,0.12367 0.11262,0.23189 0.19213,0.32464 0.0839,0.0928 0.18109,0.16563 0.29151,0.21863 0.11042,0.0486 0.22967,0.0729 0.35776,0.0729 0.12809,0 0.24734,-0.0243 0.35777,-0.0729 0.11041,-0.053 0.20538,-0.12588 0.28488,-0.21863 0.0839,-0.0927 0.14796,-0.20317 0.19213,-0.33126 0.0486,-0.12809 0.0729,-0.26943 0.0729,-0.42402 0,-0.15017 -0.0243,-0.2893 -0.0729,-0.41739 -0.0442,-0.12809 -0.10821,-0.23851 -0.19213,-0.33126 -0.0795,-0.0928 -0.17447,-0.16342 -0.28488,-0.21201 -0.11043,-0.053 -0.22968,-0.0795 -0.35777,-0.0795 -0.12809,0 -0.24734,0.0265 -0.35776,0.0795 -0.11042,0.053 -0.20759,0.12588 -0.29151,0.21863 -0.0795,0.0928 -0.14355,0.20318 -0.19213,0.33127 -0.0442,0.12809 -0.0663,0.26722 -0.0663,0.41739"
           style="font-variant:normal;font-stretch:normal;font-family:Raleway;-inkscape-font-specification:Raleway Bold"
           id="path3015"
           inkscape:connector-curvature="0" />
        <path
           d="m 287.4988,620.24506 0,-2.38509 -0.45052,0 0,-0.6824 0.45052,0 0,-0.43065 c 0,-0.43284 0.10379,-0.77514 0.31138,-1.02691 0.21201,-0.25175 0.49469,-0.37763 0.84803,-0.37764 0.28268,1e-5 0.56756,0.0685 0.85466,0.20539 l -0.17888,0.66915 c -0.0663,-0.0353 -0.14576,-0.064 -0.23851,-0.0861 -0.0883,-0.0265 -0.17005,-0.0397 -0.24513,-0.0397 -0.30918,0 -0.46377,0.20759 -0.46377,0.62277 l 0,0.46377 0.84803,0 0,0.6824 -0.84803,0 0,2.38509 -0.88778,0"
           style="font-variant:normal;font-stretch:normal;font-family:Raleway;-inkscape-font-specification:Raleway Bold"
           id="path3017"
           inkscape:connector-curvature="0" />
        <path
           d="m 291.88378,620.06617 c -0.11926,0.053 -0.26722,0.10601 -0.44389,0.15901 -0.17226,0.053 -0.35335,0.0795 -0.54327,0.0795 -0.12368,0 -0.24072,-0.0155 -0.35114,-0.0464 -0.10601,-0.0309 -0.20097,-0.0795 -0.28489,-0.14576 -0.0795,-0.0707 -0.14354,-0.159 -0.19213,-0.26501 -0.0486,-0.11042 -0.0729,-0.24292 -0.0729,-0.39751 l 0,-1.9942 -0.45051,0 0,-0.6824 0.45051,0 0,-1.1263 0.88779,0 0,1.1263 0.7354,0 0,0.6824 -0.7354,0 0,1.69606 c 0,0.12367 0.0331,0.21201 0.0994,0.26501 0.0662,0.0486 0.14575,0.0729 0.2385,0.0729 0.0928,0 0.1833,-0.0155 0.27164,-0.0464 0.0883,-0.0309 0.159,-0.0574 0.21201,-0.0795 l 0.17888,0.70227"
           style="font-variant:normal;font-stretch:normal;font-family:Raleway;-inkscape-font-specification:Raleway Bold"
           id="path3019"
           inkscape:connector-curvature="0" />
        <path
           d="m 296.63346,616.77343 0.84803,0 -1.45093,3.47163 -0.72877,0 -0.59627,-1.52381 -0.58965,1.52381 -0.72878,0 -1.45093,-3.47163 0.84141,0 1.03354,2.63684 0.42401,-1.12629 -0.60952,-1.50393 0.71553,0 0.36439,1.06667 0.37101,-1.06667 0.71553,0 -0.6029,1.50393 0.41739,1.12629 1.02691,-2.63684"
           style="font-variant:normal;font-stretch:normal;font-family:Raleway;-inkscape-font-specification:Raleway Bold"
           id="path3021"
           inkscape:connector-curvature="0" />
        <path
           d="m 298.77362,620.31131 c -0.16784,0 -0.32463,-0.0265 -0.47039,-0.0795 -0.14575,-0.0574 -0.27163,-0.13472 -0.37764,-0.23189 -0.106,-0.10158 -0.18992,-0.21863 -0.25176,-0.35114 -0.0574,-0.1325 -0.0861,-0.27826 -0.0861,-0.43726 0,-0.16342 0.0353,-0.3136 0.10601,-0.45052 0.0751,-0.14134 0.17667,-0.26059 0.30476,-0.35776 0.1325,-0.0972 0.2893,-0.17226 0.47039,-0.22526 0.18109,-0.0574 0.37985,-0.0861 0.59627,-0.0861 0.15459,0 0.30476,0.0132 0.45052,0.0398 0.15017,0.0265 0.28268,0.064 0.39752,0.11263 l 0,-0.19876 c -1e-5,-0.22967 -0.0663,-0.40634 -0.19876,-0.53002 -0.12809,-0.12366 -0.32022,-0.1855 -0.5764,-0.1855 -0.18551,0 -0.3666,0.0331 -0.54327,0.0994 -0.17667,0.0662 -0.35776,0.16342 -0.54327,0.29151 l -0.27163,-0.56315 c 0.4461,-0.29592 0.92753,-0.44389 1.4443,-0.44389 0.4991,0 0.88557,0.12367 1.15942,0.37101 0.27826,0.24293 0.41739,0.59628 0.41739,1.06004 l 0,1.07992 c 0,0.0927 0.0177,0.159 0.053,0.19876 0.0353,0.0398 0.0972,0.0618 0.18551,0.0662 l 0,0.75528 c -0.0839,0.0177 -0.16343,0.0287 -0.23851,0.0331 -0.0707,0.009 -0.13251,0.0132 -0.18551,0.0132 -0.16784,-0.004 -0.29593,-0.042 -0.38426,-0.11263 -0.0883,-0.0751 -0.14355,-0.17446 -0.16563,-0.29813 l -0.0199,-0.19213 c -0.15459,0.20317 -0.34231,0.35776 -0.56314,0.46376 -0.22085,0.10601 -0.45715,0.15901 -0.70891,0.15901 m 0.25176,-0.64928 c 0.15017,0 0.29151,-0.0265 0.42402,-0.0795 0.13692,-0.053 0.24292,-0.12367 0.31801,-0.21201 0.0972,-0.0751 0.14575,-0.159 0.14576,-0.25176 l 0,-0.39751 c -0.10601,-0.0398 -0.22085,-0.0707 -0.34452,-0.0928 -0.12367,-0.0265 -0.24292,-0.0398 -0.35776,-0.0398 -0.22968,1e-5 -0.41739,0.053 -0.56315,0.15901 -0.14575,0.10159 -0.21863,0.23188 -0.21863,0.39089 0,0.15017 0.0574,0.27605 0.17226,0.37764 0.11483,0.0972 0.25617,0.14575 0.42401,0.14575"
           style="font-variant:normal;font-stretch:normal;font-family:Raleway;-inkscape-font-specification:Raleway Bold"
           id="path3023"
           inkscape:connector-curvature="0" />
        <path
           d="m 303.71689,617.54195 c -0.26943,0.004 -0.51015,0.0574 -0.72216,0.15901 -0.21201,0.0972 -0.36439,0.24514 -0.45714,0.44389 l 0,2.10021 -0.88778,0 0,-3.47163 0.8149,0 0,0.74202 c 0.11926,-0.2385 0.27385,-0.43063 0.46377,-0.57639 0.19434,-0.14575 0.39751,-0.21863 0.60952,-0.21864 0.0486,10e-6 0.0839,0.002 0.10601,0.007 0.0265,0 0.0508,0.002 0.0729,0.007 l 0,0.80828"
           style="font-variant:normal;font-stretch:normal;font-family:Raleway;-inkscape-font-specification:Raleway Bold"
           id="path3025"
           inkscape:connector-curvature="0" />
        <path
           d="m 305.82848,620.31131 c -0.27826,0 -0.53002,-0.0464 -0.75528,-0.13913 -0.22526,-0.0972 -0.41739,-0.22747 -0.5764,-0.39089 -0.159,-0.16342 -0.28267,-0.35335 -0.37101,-0.56977 -0.0839,-0.21643 -0.12588,-0.44389 -0.12588,-0.6824 0,-0.24734 0.042,-0.47923 0.12588,-0.69565 0.0839,-0.22084 0.20538,-0.41298 0.36439,-0.5764 0.159,-0.16784 0.35114,-0.30034 0.5764,-0.39752 0.22967,-0.0972 0.48585,-0.14575 0.76852,-0.14575 0.28268,0 0.53444,0.0486 0.75528,0.14575 0.22526,0.0972 0.41518,0.22747 0.56977,0.39089 0.15901,0.16343 0.27826,0.35335 0.35777,0.56978 0.0839,0.21642 0.12587,0.44168 0.12588,0.67577 -10e-6,0.0574 -0.002,0.11263 -0.007,0.16563 0,0.053 -0.004,0.0972 -0.0133,0.13251 l -2.68322,0 c 0.0133,0.13692 0.0464,0.25838 0.0994,0.36439 0.053,0.106 0.12147,0.19655 0.20539,0.27163 0.0839,0.0751 0.17888,0.13251 0.28488,0.17226 0.10601,0.0398 0.21643,0.0596 0.33127,0.0596 0.17667,0 0.3423,-0.0419 0.49689,-0.12588 0.159,-0.0883 0.26721,-0.20317 0.32464,-0.34451 l 0.7619,0.21201 c -0.12809,0.26501 -0.33347,0.48364 -0.61615,0.6559 -0.27826,0.16784 -0.61173,0.25176 -1.00041,0.25176 m 0.90103,-2.09358 c -0.0221,-0.26059 -0.11925,-0.46818 -0.29151,-0.62277 -0.16784,-0.15901 -0.37322,-0.23851 -0.61615,-0.23851 -0.11925,0 -0.23188,0.0221 -0.33788,0.0662 -0.10159,0.0398 -0.19214,0.0972 -0.27164,0.17226 -0.0795,0.0751 -0.14576,0.16563 -0.19876,0.27163 -0.0486,0.10601 -0.0773,0.22305 -0.0861,0.35114 l 1.80206,0"
           style="font-variant:normal;font-stretch:normal;font-family:Raleway;-inkscape-font-specification:Raleway Bold"
           id="path3027"
           inkscape:connector-curvature="0" />
        <path
           d="m 309.8559,620.24506 0,-4.70393 0.91429,0 0,3.90227 2.39834,0 0,0.80166 -3.31263,0"
           style="font-variant:normal;font-stretch:normal;font-family:Raleway;-inkscape-font-specification:Raleway Bold"
           id="path3029"
           inkscape:connector-curvature="0" />
        <path
           d="m 313.67101,620.24506 0,-3.47163 0.88779,0 0,3.47163 -0.88779,0 m 0,-3.95528 0,-0.88116 0.88779,0 0,0.88116 -0.88779,0"
           style="font-variant:normal;font-stretch:normal;font-family:Raleway;-inkscape-font-specification:Raleway Bold"
           id="path3031"
           inkscape:connector-curvature="0" />
        <path
           d="m 317.32753,620.31131 c -0.26501,0 -0.50131,-0.0596 -0.7089,-0.17888 -0.2076,-0.11926 -0.37102,-0.28268 -0.49027,-0.49027 l 0,0.6029 -0.77516,0 0,-4.83644 0.88779,0 0,1.97433 c 0.12367,-0.21201 0.28488,-0.37543 0.48364,-0.49027 0.20317,-0.11925 0.43726,-0.17888 0.70228,-0.17888 0.22525,0 0.43063,0.0486 0.61614,0.14575 0.18992,0.0972 0.35114,0.22747 0.48365,0.39089 0.13692,0.16343 0.24071,0.35556 0.31138,0.5764 0.0751,0.22084 0.11263,0.45273 0.11263,0.69565 0,0.25176 -0.042,0.48585 -0.12588,0.70228 -0.0795,0.21642 -0.19213,0.40635 -0.33788,0.56977 -0.14576,0.15901 -0.31802,0.28489 -0.51677,0.37764 -0.19876,0.0928 -0.41298,0.13913 -0.64265,0.13913 m -0.24514,-0.75528 c 0.14134,0 0.26943,-0.0265 0.38427,-0.0795 0.11925,-0.0574 0.22084,-0.13251 0.30476,-0.22526 0.0883,-0.0928 0.15459,-0.20097 0.19876,-0.32464 0.0486,-0.12367 0.0729,-0.25617 0.0729,-0.39751 0,-0.14134 -0.0221,-0.27605 -0.0662,-0.40414 -0.0442,-0.12809 -0.10821,-0.24072 -0.19213,-0.33789 -0.0795,-0.0972 -0.17447,-0.17446 -0.28489,-0.23188 -0.11042,-0.0574 -0.23188,-0.0861 -0.36438,-0.0861 -0.19876,0 -0.37765,0.0663 -0.53665,0.19875 -0.15459,0.1281 -0.27384,0.2871 -0.35776,0.47702 l 0,0.82816 c 0.0309,0.0883 0.0751,0.16784 0.1325,0.23851 0.0618,0.0707 0.1303,0.1325 0.20538,0.1855 0.0751,0.0486 0.1568,0.0883 0.24514,0.11926 0.0883,0.0265 0.17446,0.0397 0.25838,0.0397"
           style="font-variant:normal;font-stretch:normal;font-family:Raleway;-inkscape-font-specification:Raleway Bold"
           id="path3033"
           inkscape:connector-curvature="0" />
        <path
           d="m 321.61282,617.54195 c -0.26943,0.004 -0.51014,0.0574 -0.72215,0.15901 -0.21201,0.0972 -0.36439,0.24514 -0.45714,0.44389 l 0,2.10021 -0.88778,0 0,-3.47163 0.8149,0 0,0.74202 c 0.11926,-0.2385 0.27384,-0.43063 0.46377,-0.57639 0.19434,-0.14575 0.39751,-0.21863 0.60952,-0.21864 0.0486,10e-6 0.0839,0.002 0.10601,0.007 0.0265,0 0.0508,0.002 0.0729,0.007 l 0,0.80828"
           style="font-variant:normal;font-stretch:normal;font-family:Raleway;-inkscape-font-specification:Raleway Bold"
           id="path3035"
           inkscape:connector-curvature="0" />
        <path
           d="m 323.72441,620.31131 c -0.27826,0 -0.53002,-0.0464 -0.75528,-0.13913 -0.22526,-0.0972 -0.41739,-0.22747 -0.57639,-0.39089 -0.15901,-0.16342 -0.28268,-0.35335 -0.37102,-0.56977 -0.0839,-0.21643 -0.12588,-0.44389 -0.12588,-0.6824 0,-0.24734 0.042,-0.47923 0.12588,-0.69565 0.0839,-0.22084 0.20538,-0.41298 0.36439,-0.5764 0.15901,-0.16784 0.35114,-0.30034 0.5764,-0.39752 0.22967,-0.0972 0.48585,-0.14575 0.76853,-0.14575 0.28267,0 0.53443,0.0486 0.75527,0.14575 0.22526,0.0972 0.41518,0.22747 0.56978,0.39089 0.159,0.16343 0.27825,0.35335 0.35776,0.56978 0.0839,0.21642 0.12587,0.44168 0.12588,0.67577 -1e-5,0.0574 -0.002,0.11263 -0.007,0.16563 0,0.053 -0.004,0.0972 -0.0132,0.13251 l -2.68322,0 c 0.0132,0.13692 0.0464,0.25838 0.0994,0.36439 0.053,0.106 0.12146,0.19655 0.20538,0.27163 0.0839,0.0751 0.17888,0.13251 0.28488,0.17226 0.10601,0.0398 0.21643,0.0596 0.33127,0.0596 0.17667,0 0.3423,-0.0419 0.49689,-0.12588 0.159,-0.0883 0.26722,-0.20317 0.32464,-0.34451 l 0.7619,0.21201 c -0.12809,0.26501 -0.33347,0.48364 -0.61615,0.6559 -0.27826,0.16784 -0.61173,0.25176 -1.00041,0.25176 m 0.90103,-2.09358 c -0.0221,-0.26059 -0.11925,-0.46818 -0.29151,-0.62277 -0.16784,-0.15901 -0.37322,-0.23851 -0.61614,-0.23851 -0.11926,0 -0.23189,0.0221 -0.33789,0.0662 -0.10159,0.0398 -0.19214,0.0972 -0.27164,0.17226 -0.0795,0.0751 -0.14575,0.16563 -0.19876,0.27163 -0.0486,0.10601 -0.0773,0.22305 -0.0861,0.35114 l 1.80206,0"
           style="font-variant:normal;font-stretch:normal;font-family:Raleway;-inkscape-font-specification:Raleway Bold"
           id="path3037"
           inkscape:connector-curvature="0" />
        <path
           d="m 331.58786,620.24506 0,-3.11387 -1.21242,2.31884 -0.49689,0 -1.21242,-2.31884 0,3.11387 -0.91429,0 0,-4.70393 0.98054,0 1.3913,2.6766 1.40455,-2.6766 0.97392,0 0,4.70393 -0.91429,0"
           style="font-variant:normal;font-stretch:normal;font-family:Raleway;-inkscape-font-specification:Raleway Bold"
           id="path3039"
           inkscape:connector-curvature="0" />
        <path
           d="m 335.00142,620.31131 c -0.28268,0 -0.53665,-0.0486 -0.76191,-0.14576 -0.22526,-0.0972 -0.41739,-0.22746 -0.57639,-0.39089 -0.15459,-0.16784 -0.27385,-0.35997 -0.35777,-0.57639 -0.0839,-0.21643 -0.12588,-0.44389 -0.12588,-0.6824 0,-0.24293 0.042,-0.4726 0.12588,-0.68903 0.0839,-0.21642 0.20318,-0.40635 0.35777,-0.56977 0.159,-0.16784 0.35113,-0.30034 0.57639,-0.39752 0.22526,-0.0972 0.47923,-0.14575 0.76191,-0.14575 0.28267,0 0.53443,0.0486 0.75527,0.14575 0.22526,0.0972 0.41518,0.22968 0.56978,0.39752 0.159,0.16342 0.28046,0.35335 0.36438,0.56977 0.0839,0.21643 0.12588,0.4461 0.12588,0.68903 0,0.23851 -0.042,0.46597 -0.12588,0.6824 -0.0839,0.21642 -0.20317,0.40855 -0.35776,0.57639 -0.15459,0.16343 -0.34452,0.29372 -0.56977,0.39089 -0.22526,0.0972 -0.47923,0.14576 -0.7619,0.14576 m -0.90766,-1.79544 c 0,0.15459 0.0221,0.29593 0.0663,0.42401 0.0486,0.12367 0.11263,0.23189 0.19213,0.32464 0.0839,0.0928 0.18109,0.16563 0.29151,0.21863 0.11042,0.0486 0.22968,0.0729 0.35777,0.0729 0.12808,0 0.24734,-0.0243 0.35776,-0.0729 0.11042,-0.053 0.20538,-0.12588 0.28488,-0.21863 0.0839,-0.0927 0.14797,-0.20317 0.19214,-0.33126 0.0486,-0.12809 0.0729,-0.26943 0.0729,-0.42402 0,-0.15017 -0.0243,-0.2893 -0.0729,-0.41739 -0.0442,-0.12809 -0.10822,-0.23851 -0.19214,-0.33126 -0.0795,-0.0928 -0.17446,-0.16342 -0.28488,-0.21201 -0.11042,-0.053 -0.22968,-0.0795 -0.35776,-0.0795 -0.12809,0 -0.24735,0.0265 -0.35777,0.0795 -0.11042,0.053 -0.20759,0.12588 -0.29151,0.21863 -0.0795,0.0928 -0.14355,0.20318 -0.19213,0.33127 -0.0442,0.12809 -0.0663,0.26722 -0.0663,0.41739"
           style="font-variant:normal;font-stretch:normal;font-family:Raleway;-inkscape-font-specification:Raleway Bold"
           id="path3041"
           inkscape:connector-curvature="0" />
        <path
           d="m 340.62935,620.24506 -0.88778,0 0,-1.94783 c 0,-0.27826 -0.0486,-0.48143 -0.14576,-0.60952 -0.0972,-0.12809 -0.23188,-0.19213 -0.40414,-0.19213 -0.0883,0 -0.17888,0.0177 -0.27163,0.053 -0.0928,0.0353 -0.18109,0.0861 -0.26501,0.15238 -0.0795,0.0618 -0.15238,0.13692 -0.21864,0.22526 -0.0663,0.0883 -0.11483,0.18551 -0.14575,0.29151 l 0,2.02733 -0.88778,0 0,-3.47163 0.80165,0 0,0.64265 c 0.12809,-0.22084 0.31359,-0.3931 0.55652,-0.51677 0.24293,-0.12367 0.51677,-0.18551 0.82153,-0.18551 0.21642,0 0.3931,0.0398 0.53002,0.11925 0.13692,0.0795 0.24292,0.1833 0.31801,0.31139 0.0751,0.12809 0.12588,0.27385 0.15238,0.43727 0.0309,0.16342 0.0464,0.32905 0.0464,0.49689 l 0,2.16646"
           style="font-variant:normal;font-stretch:normal;font-family:Raleway;-inkscape-font-specification:Raleway Bold"
           id="path3043"
           inkscape:connector-curvature="0" />
        <path
           d="m 343.46237,620.06617 c -0.11925,0.053 -0.26722,0.10601 -0.44389,0.15901 -0.17226,0.053 -0.35335,0.0795 -0.54327,0.0795 -0.12367,0 -0.24072,-0.0155 -0.35114,-0.0464 -0.106,-0.0309 -0.20096,-0.0795 -0.28488,-0.14576 -0.0795,-0.0707 -0.14355,-0.159 -0.19213,-0.26501 -0.0486,-0.11042 -0.0729,-0.24292 -0.0729,-0.39751 l 0,-1.9942 -0.45052,0 0,-0.6824 0.45052,0 0,-1.1263 0.88778,0 0,1.1263 0.7354,0 0,0.6824 -0.7354,0 0,1.69606 c 0,0.12367 0.0331,0.21201 0.0994,0.26501 0.0663,0.0486 0.14575,0.0729 0.23851,0.0729 0.0928,0 0.1833,-0.0155 0.27163,-0.0464 0.0883,-0.0309 0.15901,-0.0574 0.21201,-0.0795 l 0.17888,0.70227"
           style="font-variant:normal;font-stretch:normal;font-family:Raleway;-inkscape-font-specification:Raleway Bold"
           id="path3045"
           inkscape:connector-curvature="0" />
        <path
           d="m 345.52821,620.31131 c -0.27827,0 -0.53003,-0.0464 -0.75528,-0.13913 -0.22526,-0.0972 -0.41739,-0.22747 -0.5764,-0.39089 -0.15901,-0.16342 -0.28268,-0.35335 -0.37101,-0.56977 -0.0839,-0.21643 -0.12588,-0.44389 -0.12588,-0.6824 0,-0.24734 0.042,-0.47923 0.12588,-0.69565 0.0839,-0.22084 0.20538,-0.41298 0.36438,-0.5764 0.15901,-0.16784 0.35114,-0.30034 0.5764,-0.39752 0.22968,-0.0972 0.48585,-0.14575 0.76853,-0.14575 0.28268,0 0.53443,0.0486 0.75528,0.14575 0.22525,0.0972 0.41518,0.22747 0.56977,0.39089 0.159,0.16343 0.27826,0.35335 0.35776,0.56978 0.0839,0.21642 0.12588,0.44168 0.12588,0.67577 0,0.0574 -0.002,0.11263 -0.007,0.16563 -1e-5,0.053 -0.004,0.0972 -0.0133,0.13251 l -2.68323,0 c 0.0132,0.13692 0.0464,0.25838 0.0994,0.36439 0.053,0.106 0.12146,0.19655 0.20538,0.27163 0.0839,0.0751 0.17888,0.13251 0.28489,0.17226 0.106,0.0398 0.21642,0.0596 0.33126,0.0596 0.17667,0 0.3423,-0.0419 0.4969,-0.12588 0.159,-0.0883 0.26721,-0.20317 0.32463,-0.34451 l 0.76191,0.21201 c -0.1281,0.26501 -0.33348,0.48364 -0.61615,0.6559 -0.27827,0.16784 -0.61174,0.25176 -1.00041,0.25176 m 0.90103,-2.09358 c -0.0221,-0.26059 -0.11926,-0.46818 -0.29151,-0.62277 -0.16784,-0.15901 -0.37323,-0.23851 -0.61615,-0.23851 -0.11926,0 -0.23189,0.0221 -0.33789,0.0662 -0.10159,0.0398 -0.19213,0.0972 -0.27163,0.17226 -0.0795,0.0751 -0.14576,0.16563 -0.19876,0.27163 -0.0486,0.10601 -0.0773,0.22305 -0.0861,0.35114 l 1.80207,0"
           style="font-variant:normal;font-stretch:normal;font-family:Raleway;-inkscape-font-specification:Raleway Bold"
           id="path3047"
           inkscape:connector-curvature="0" />
        <path
           d="m 349.95129,617.54195 c -0.26943,0.004 -0.51015,0.0574 -0.72216,0.15901 -0.212,0.0972 -0.36439,0.24514 -0.45714,0.44389 l 0,2.10021 -0.88778,0 0,-3.47163 0.8149,0 0,0.74202 c 0.11926,-0.2385 0.27385,-0.43063 0.46377,-0.57639 0.19434,-0.14575 0.39752,-0.21863 0.60953,-0.21864 0.0486,10e-6 0.0839,0.002 0.106,0.007 0.0265,0 0.0508,0.002 0.0729,0.007 l 0,0.80828"
           style="font-variant:normal;font-stretch:normal;font-family:Raleway;-inkscape-font-specification:Raleway Bold"
           id="path3049"
           inkscape:connector-curvature="0" />
        <path
           d="m 351.11547,616.36929 -0.56977,-0.17226 0.35776,-0.78841 0.82816,0 -0.61615,0.96067 m -0.66915,3.87577 0,-3.47163 0.88778,0 0,3.47163 -0.88778,0"
           style="font-variant:normal;font-stretch:normal;font-family:Raleway;-inkscape-font-specification:Raleway Bold"
           id="path3051"
           inkscape:connector-curvature="0" />
        <path
           d="m 353.08255,620.31131 c -0.16784,0 -0.32464,-0.0265 -0.4704,-0.0795 -0.14575,-0.0574 -0.27163,-0.13472 -0.37764,-0.23189 -0.106,-0.10158 -0.18992,-0.21863 -0.25176,-0.35114 -0.0574,-0.1325 -0.0861,-0.27826 -0.0861,-0.43726 0,-0.16342 0.0353,-0.3136 0.106,-0.45052 0.0751,-0.14134 0.17667,-0.26059 0.30476,-0.35776 0.13251,-0.0972 0.2893,-0.17226 0.47039,-0.22526 0.18109,-0.0574 0.37985,-0.0861 0.59628,-0.0861 0.15458,0 0.30476,0.0132 0.45051,0.0398 0.15017,0.0265 0.28268,0.064 0.39752,0.11263 l 0,-0.19876 c 0,-0.22967 -0.0663,-0.40634 -0.19876,-0.53002 -0.12809,-0.12366 -0.32022,-0.1855 -0.5764,-0.1855 -0.1855,0 -0.36659,0.0331 -0.54327,0.0994 -0.17667,0.0662 -0.35776,0.16342 -0.54327,0.29151 l -0.27163,-0.56315 c 0.4461,-0.29592 0.92753,-0.44389 1.4443,-0.44389 0.4991,0 0.88557,0.12367 1.15942,0.37101 0.27826,0.24293 0.41739,0.59628 0.41739,1.06004 l 0,1.07992 c 0,0.0927 0.0177,0.159 0.053,0.19876 0.0353,0.0398 0.0972,0.0618 0.18551,0.0662 l 0,0.75528 c -0.0839,0.0177 -0.16343,0.0287 -0.23851,0.0331 -0.0707,0.009 -0.13251,0.0132 -0.18551,0.0132 -0.16784,-0.004 -0.29593,-0.042 -0.38426,-0.11263 -0.0883,-0.0751 -0.14355,-0.17446 -0.16563,-0.29813 l -0.0199,-0.19213 c -0.15459,0.20317 -0.3423,0.35776 -0.56314,0.46376 -0.22085,0.10601 -0.45715,0.15901 -0.7089,0.15901 m 0.25176,-0.64928 c 0.15017,0 0.2915,-0.0265 0.42401,-0.0795 0.13692,-0.053 0.24292,-0.12367 0.31801,-0.21201 0.0972,-0.0751 0.14576,-0.159 0.14576,-0.25176 l 0,-0.39751 c -0.10601,-0.0398 -0.22085,-0.0707 -0.34451,-0.0928 -0.12368,-0.0265 -0.24293,-0.0398 -0.35777,-0.0398 -0.22967,1e-5 -0.41739,0.053 -0.56314,0.15901 -0.14576,0.10159 -0.21864,0.23188 -0.21864,0.39089 0,0.15017 0.0574,0.27605 0.17226,0.37764 0.11484,0.0972 0.25617,0.14575 0.42402,0.14575"
           style="font-variant:normal;font-stretch:normal;font-family:Raleway;-inkscape-font-specification:Raleway Bold"
           id="path3053"
           inkscape:connector-curvature="0" />
      </g>
      <g
         transform="matrix(1.4903457,0,0,1.5394937,-113.52809,-265.86187)"
         style="font-size:37.60432816px;font-style:normal;font-weight:normal;line-height:125%;letter-spacing:0px;word-spacing:0px;fill:#ffffff;fill-opacity:1;stroke:none;font-family:Sans"
         id="text2999">
        <path
           d="m 312.39763,500.83859 0,26.69907 -5.15179,0 0,-11.39411 -12.10859,0 0,11.39411 -5.1894,0 0,-26.69907 5.1894,0 0,10.79244 12.10859,0 0,-10.79244 5.15179,0"
           style="font-variant:normal;font-weight:bold;font-stretch:normal;fill:#ffffff;font-family:Raleway;-inkscape-font-specification:Raleway Bold"
           id="path2994"
           inkscape:connector-curvature="0" />
        <path
           d="m 323.42099,527.9137 c -2.03064,0 -3.57241,-0.65181 -4.62533,-1.95542 -1.05293,-1.30362 -1.57939,-3.23397 -1.57938,-5.79107 l 0,-12.33422 5.03898,0 0,11.24369 c -1e-5,3.03343 1.09051,4.55013 3.27157,4.55013 1.00277,0 1.95542,-0.2883 2.85793,-0.8649 0.92756,-0.60166 1.67965,-1.50417 2.25626,-2.70751 l 0,-12.22141 5.03898,0 0,13.9136 c -2e-5,0.52647 0.10026,0.90251 0.30084,1.12813 0.20053,0.22563 0.55151,0.35098 1.05292,0.37605 l 0,4.28689 c -0.52648,0.10028 -0.99027,0.16295 -1.39136,0.18802 -0.40114,0.0501 -0.75211,0.0752 -1.05292,0.0752 -0.90253,0 -1.61701,-0.20056 -2.14345,-0.60167 -0.50141,-0.42618 -0.81478,-1.00278 -0.94011,-1.7298 l -0.11281,-1.61699 c -0.90252,1.35376 -2.04318,2.36908 -3.422,3.04596 -1.35376,0.67687 -2.87047,1.01531 -4.55012,1.01531"
           style="font-variant:normal;font-weight:bold;font-stretch:normal;fill:#ffffff;font-family:Raleway;-inkscape-font-specification:Raleway Bold"
           id="path2996"
           inkscape:connector-curvature="0" />
        <path
           d="m 359.07342,527.53766 -5.03898,0 0,-11.05567 c -2e-5,-1.57937 -0.27578,-2.73257 -0.82729,-3.4596 -0.55155,-0.727 -1.31617,-1.09051 -2.29387,-1.09053 -0.5014,2e-5 -1.01533,0.1003 -1.54178,0.30084 -0.52647,0.20057 -1.02786,0.48887 -1.50417,0.8649 -0.45126,0.35098 -0.86491,0.77717 -1.24094,1.27854 -0.37605,0.50141 -0.65182,1.05294 -0.8273,1.65459 l 0,11.50693 -5.03898,0 0,-19.70467 4.55013,0 0,3.64762 c 0.72701,-1.25346 1.77993,-2.23117 3.15876,-2.93314 1.37881,-0.70192 2.93312,-1.0529 4.66294,-1.05292 1.22839,2e-5 2.23117,0.22565 3.00834,0.67688 0.77714,0.45127 1.37881,1.0404 1.80501,1.7674 0.42616,0.72704 0.71446,1.55433 0.8649,2.48189 0.17547,0.92759 0.26321,1.86769 0.26323,2.82032 l 0,12.29662"
           style="font-variant:normal;font-weight:bold;font-stretch:normal;fill:#ffffff;font-family:Raleway;-inkscape-font-specification:Raleway Bold"
           id="path2998"
           inkscape:connector-curvature="0" />
        <path
           d="m 375.15338,526.52234 c -0.67689,0.30084 -1.51672,0.60167 -2.51949,0.90251 -0.97772,0.30083 -2.00557,0.45125 -3.08355,0.45125 -0.70196,0 -1.3663,-0.0877 -1.99303,-0.26323 -0.60168,-0.17549 -1.14067,-0.45125 -1.61699,-0.8273 -0.45126,-0.40111 -0.81476,-0.9025 -1.09053,-1.50417 -0.27576,-0.62674 -0.41365,-1.37882 -0.41364,-2.25626 l 0,-11.3189 -2.5571,0 0,-3.87325 2.5571,0 0,-6.39274 5.03898,0 0,6.39274 4.17408,0 0,3.87325 -4.17408,0 0,9.6267 c -10e-6,0.70196 0.18801,1.20335 0.56406,1.50418 0.37604,0.27577 0.82729,0.41365 1.35376,0.41365 0.52645,0 1.04037,-0.0877 1.54178,-0.26324 0.50137,-0.17548 0.90249,-0.32589 1.20333,-0.45125 l 1.01532,3.98606"
           style="font-variant:normal;font-weight:bold;font-stretch:normal;fill:#ffffff;font-family:Raleway;-inkscape-font-specification:Raleway Bold"
           id="path3000"
           inkscape:connector-curvature="0" />
        <path
           d="m 386.87888,527.9137 c -1.57939,0 -3.00835,-0.26323 -4.28689,-0.78969 -1.27855,-0.55153 -2.36908,-1.29108 -3.27158,-2.21865 -0.9025,-0.92757 -1.60445,-2.00556 -2.10584,-3.23398 -0.47632,-1.2284 -0.71448,-2.51948 -0.71448,-3.87324 0,-1.40389 0.23816,-2.72004 0.71448,-3.94846 0.47632,-1.25346 1.16573,-2.34398 2.06824,-3.27157 0.9025,-0.95263 1.99302,-1.70471 3.27157,-2.25626 1.30361,-0.55151 2.75765,-0.82728 4.36211,-0.8273 1.60443,2e-5 3.0334,0.27579 4.28689,0.8273 1.27853,0.55155 2.35652,1.2911 3.23397,2.21865 0.90249,0.92759 1.57936,2.00558 2.03064,3.23397 0.4763,1.22843 0.71446,2.50697 0.71448,3.83565 -2e-5,0.32591 -0.0126,0.63928 -0.0376,0.9401 -2e-5,0.30085 -0.0251,0.55154 -0.0752,0.75209 l -15.22976,0 c 0.0752,0.77716 0.26323,1.46658 0.56407,2.06824 0.30082,0.60167 0.6894,1.1156 1.16573,1.54178 0.47631,0.42618 1.01531,0.75209 1.61699,0.97771 0.60166,0.22563 1.22839,0.33844 1.88021,0.33844 1.00277,0 1.94288,-0.23816 2.82033,-0.71448 0.90249,-0.50139 1.51669,-1.1532 1.84261,-1.95543 l 4.3245,1.20334 c -0.72704,1.50418 -1.89277,2.74512 -3.4972,3.72283 -1.5794,0.95264 -3.47215,1.42896 -5.67826,1.42896 m 5.11419,-11.88297 c -0.12536,-1.47909 -0.67689,-2.65735 -1.65459,-3.5348 -0.95266,-0.90249 -2.11839,-1.35374 -3.4972,-1.35376 -0.67689,2e-5 -1.31616,0.12537 -1.91782,0.37604 -0.57661,0.22565 -1.09054,0.55155 -1.54178,0.97772 -0.45126,0.42619 -0.8273,0.94012 -1.12813,1.54177 -0.27577,0.60169 -0.43872,1.26603 -0.48886,1.99303 l 10.22838,0"
           style="font-variant:normal;font-weight:bold;font-stretch:normal;fill:#ffffff;font-family:Raleway;-inkscape-font-specification:Raleway Bold"
           id="path3002"
           inkscape:connector-curvature="0" />
        <path
           d="m 411.98388,512.19509 c -1.52925,0.0251 -2.89554,0.32592 -4.09887,0.90251 -1.20335,0.55154 -2.06825,1.39137 -2.5947,2.51949 l 0,11.92057 -5.03898,0 0,-19.70467 4.62533,0 0,4.21169 c 0.67687,-1.35374 1.55431,-2.44427 2.63231,-3.27158 1.10305,-0.82728 2.25624,-1.24092 3.45959,-1.24094 0.27576,2e-5 0.47631,0.0126 0.60167,0.0376 0.15041,2e-5 0.28829,0.0126 0.41365,0.0376 l 0,4.58773"
           style="font-variant:normal;font-weight:bold;font-stretch:normal;fill:#ffffff;font-family:Raleway;-inkscape-font-specification:Raleway Bold"
           id="path3004"
           inkscape:connector-curvature="0" />
      </g>
    </g>
  </g>
</svg>
